<?xml version="1.0" encoding="utf-8"?>
<!-- Generator: Adobe Illustrator 22.1.0, SVG Export Plug-In . SVG Version: 6.00 Build 0)  -->
<svg version="1.1" id="right_1_" xmlns="http://www.w3.org/2000/svg" xmlns:xlink="http://www.w3.org/1999/xlink" x="0px" y="0px"
	 viewBox="0 0 214 358" style="enable-background:new 0 0 214 358;" xml:space="preserve">
<style type="text/css">
	.st0{fill:#00EA75;}
</style>
<path id="right" class="st0" d="M203.1,153.6c-1.8-1.8-3.7-3.3-5.8-4.7L60.8,10.1C47.8-3.2,26.4-3.4,13.1,9.6
	c-0.2,0.2-0.3,0.3-0.5,0.5c-13.3,13.5-13.3,35.5,0,49l117.5,119.5L12,298.8c-13.3,13.5-13.3,35.5,0,49c6.7,6.8,15.4,10.1,24.1,10.1
	s17.5-3.4,24.1-10.2l137.1-139.4c2-1.3,4-2.9,5.8-4.7c6.8-6.9,10.1-16,9.9-25.1C213.2,169.6,209.9,160.5,203.1,153.6L203.1,153.6z"
	/>
</svg>
