<?xml version="1.0" encoding="utf-8"?>
<!-- Generator: Adobe Illustrator 22.1.0, SVG Export Plug-In . SVG Version: 6.00 Build 0)  -->
<svg version="1.1" id="Capa_1" xmlns="http://www.w3.org/2000/svg" xmlns:xlink="http://www.w3.org/1999/xlink" x="0px" y="0px"
	 viewBox="0 0 215.2 235.1" style="enable-background:new 0 0 215.2 235.1;" xml:space="preserve">
<style type="text/css">
	.st0{fill:#00EA75;}
</style>
<path class="st0" d="M102.1,192.5c0,6-1.1,11.5-3.4,16.7s-5.3,9.7-9.1,13.6c-3.8,3.9-8.3,6.9-13.6,9.1c-5.3,2.2-10.8,3.3-16.5,3.3
	c-10.5,0-19.6-3.7-27.2-11s-13.8-16.3-18.6-27s-8.3-21.7-10.5-33c-2.1-11.4-3.2-22-3.2-31.8C0,91.8,17.3,50.8,51.9,9.3
	C58.1,3.1,65.1,0,72.9,0c8,0,14.9,2.9,20.6,8.6s8.6,12.6,8.6,20.6c0,3.9-0.8,7.9-2.4,12c-10.3,25.2-15.5,49.2-15.5,71.9
	c0,21.5,4.7,42.4,14.1,62.6C100.8,181.4,102.1,187,102.1,192.5L102.1,192.5z M215.2,192.5c0,6-1.1,11.5-3.4,16.7
	c-2.3,5.2-5.3,9.7-9.1,13.6c-3.8,3.9-8.3,6.9-13.6,9.1c-5.3,2.2-10.8,3.3-16.5,3.3c-10.5,0-19.6-3.7-27.2-11
	c-7.6-7.3-13.8-16.3-18.6-27c-4.8-10.7-8.3-21.7-10.5-33s-3.3-21.9-3.3-31.8c0-40.6,17.3-81.6,51.9-123.1c6.2-6.2,13.2-9.3,21-9.3
	c8,0,14.9,2.9,20.6,8.6c5.7,5.7,8.6,12.6,8.6,20.6c0,3.9-0.8,7.9-2.4,12c-10.3,25.2-15.5,49.2-15.5,71.9c0,21.5,4.7,42.4,14.1,62.6
	C213.9,181.4,215.2,187,215.2,192.5L215.2,192.5z"/>
</svg>
