<?xml version="1.0" encoding="utf-8"?>
<!-- Generator: Adobe Illustrator 22.1.0, SVG Export Plug-In . SVG Version: 6.00 Build 0)  -->
<svg version="1.1" id="Capa_1" xmlns="http://www.w3.org/2000/svg" xmlns:xlink="http://www.w3.org/1999/xlink" x="0px" y="0px"
	 viewBox="0 0 215.2 235.1" style="enable-background:new 0 0 215.2 235.1;" xml:space="preserve">
<style type="text/css">
	.st0{fill:#00EA75;}
</style>
<path class="st0" d="M107.6,135.7c-53,0-96,43-96,96h12.8c0.1-46,37.3-83.1,83.2-83.2c45.9,0.1,83.1,37.2,83.2,83.2h12.8
	C203.6,178.7,160.6,135.7,107.6,135.7z"/>
<path class="st0" d="M107.6,131.2c34.2,0,61.9-27.7,61.9-61.9c0-34.2-27.7-61.9-61.9-61.9S45.7,35.2,45.7,69.4
	C45.7,103.5,73.4,131.2,107.6,131.2z M107.6,20.3c27.1,0,49,22,49.1,49.1c-0.1,27.1-22,49-49.1,49.1c-27.1-0.1-49-22-49.1-49.1
	C58.6,42.3,80.5,20.4,107.6,20.3z"/>
<circle class="st0" cx="107.6" cy="69.4" r="56"/>
<path class="st0" d="M107.6,231.7l-96-0.1c0-52.6,43.4-95.9,96-95.9c52.7,0,96,43.3,96,96H107.6z"/>
</svg>
