<?xml version="1.0" encoding="utf-8"?>
<!-- Generator: Adobe Illustrator 22.1.0, SVG Export Plug-In . SVG Version: 6.00 Build 0)  -->
<svg version="1.1" id="Layer_1" xmlns="http://www.w3.org/2000/svg" xmlns:xlink="http://www.w3.org/1999/xlink" x="0px" y="0px"
	 viewBox="0 0 419 419" style="enable-background:new 0 0 419 419;" xml:space="preserve">
<style type="text/css">
	.st0{fill:#CCCCCC;}
	.st1{fill:#333333;}
	.st2{fill:#FFFFFF;}
	.st3{opacity:0.44;fill:#333333;enable-background:new    ;}
	.st4{fill:#FFD3AE;}
</style>
<g>
	<path class="st0" d="M256,249.3c0.2,0,0.4,0.1,0.6,0.1c10.1,2.4,19.4,6.7,27.7,12.3c22.5,15.3,37.3,41.1,37.3,70.4v81.6h-45.2
		H140.8H95.6v-81.6c0-29.3,14.8-55.1,37.3-70.4c8.3-5.7,17.7-9.9,27.7-12.3c0.2,0,0.4-0.1,0.6-0.1H256z"/>
	<path class="st0" d="M140.8,294.5v119.2H95.6v-81.6c0-29.3,14.8-55.1,37.3-70.4C137.9,271.5,140.8,282.7,140.8,294.5z"/>
	<path class="st0" d="M321.6,332.1v81.6h-45.2V294.5c0-11.8,2.9-23,8-32.8C306.8,277,321.6,302.9,321.6,332.1z"/>
	<path class="st1" d="M282.1,413.8h-11.5V294.5c0-12.3,3-24.6,8.6-35.4l10.2,5.3c-4.9,9.4-7.3,19.5-7.3,30.1V413.8z"/>
	<path class="st2" d="M302.4,396.7c-3.2,0-5.8-2.6-5.8-5.8V326c0-3.2,2.6-5.8,5.8-5.8s5.8,2.6,5.8,5.8v64.9
		C308.1,394.1,305.5,396.7,302.4,396.7z"/>
	<path class="st3" d="M137.6,273.3c-14.6,15.3-23.6,36-23.6,58.8v81.3H95.6v-81.3c0-29.3,14.8-55.1,37.3-70.4
		C134.7,265.4,136.3,269.3,137.6,273.3z"/>
	<path class="st1" d="M321.6,419.5h-226c-3.2,0-5.8-2.6-5.8-5.8v-81.6c0-30.1,14.9-58.2,39.8-75.2c9.1-6.2,19-10.6,29.6-13.1
		c0.1,0,0.3-0.1,0.4-0.1l0.1,0l2.9,11.2c-0.1,0-0.3,0.1-0.4,0.1l-0.1,0c0,0-0.1,0-0.1,0c-9.2,2.2-17.9,6.1-25.8,11.5
		c-21.7,14.8-34.7,39.3-34.7,65.6V408h214.5v-75.9c0-26.3-13-50.8-34.7-65.6c-7.9-5.4-16.6-9.2-25.8-11.5c0,0-0.1,0-0.1,0l-0.1,0
		c-0.1,0-0.3-0.1-0.4-0.1l2.9-11.2l0.1,0c0.1,0,0.3,0.1,0.4,0.1c10.6,2.6,20.5,7,29.6,13.1c24.9,17,39.8,45.1,39.8,75.2v81.6
		C327.4,416.9,324.8,419.5,321.6,419.5z"/>
	<path class="st1" d="M146.6,413.8H135V294.5c0-10.6-2.5-20.8-7.3-30.1l10.2-5.3c5.6,10.9,8.6,23.1,8.6,35.4V413.8z"/>
	<path class="st1" d="M335,419.5H82.4c-3.2,0-5.8-2.6-5.8-5.8s2.6-5.8,5.8-5.8H335c3.2,0,5.8,2.6,5.8,5.8S338.2,419.5,335,419.5z"/>
	<path class="st1" d="M365.8,419.5h-10.6c-3.2,0-5.8-2.6-5.8-5.8s2.6-5.8,5.8-5.8h10.6c3.2,0,5.8,2.6,5.8,5.8S369,419.5,365.8,419.5
		z"/>
	<path class="st1" d="M61.9,419.5H51.4c-3.2,0-5.8-2.6-5.8-5.8s2.6-5.8,5.8-5.8h10.6c3.2,0,5.8,2.6,5.8,5.8S65.1,419.5,61.9,419.5z"
		/>
	<path class="st4" d="M258.3,243.9C258.3,243.9,258.3,243.9,258.3,243.9c-1.5,3.8-13.8,31.3-47.6,44.1h0
		c-34.7-13-46.7-41.6-47.7-44.3c0.1,0.1,0.2,0.1,0.3,0.2c13.6,9.1,29.9,14.5,47.5,14.5s33.9-5.3,47.5-14.5c0.1-0.1,0.2-0.1,0.3-0.2
		C258.3,243.8,258.3,243.8,258.3,243.9z"/>
	<path class="st3" d="M256.2,249.3C256.2,249.3,256.2,249.3,256.2,249.3c-1.5,3.8-13.8,31.3-47.6,44.1h0
		c-34.7-13-46.7-41.6-47.7-44.3c0.1,0.1,0.2,0.1,0.3,0.2c13.6,9.1,29.9,14.5,47.5,14.5s33.9-5.3,47.5-14.5c0.1-0.1,0.2-0.1,0.3-0.2
		C256.3,249.2,256.3,249.2,256.2,249.3z"/>
	<path class="st1" d="M226.6,415.3H215V301.5c-2.9-0.8-5.7-1.7-8.5-2.8l4-10.8c3.7,1.4,7.6,2.5,11.5,3.4c2.6,0.6,4.5,2.9,4.5,5.6
		L226.6,415.3L226.6,415.3z"/>
	<path class="st1" d="M206.6,298.8c-36.8-13.8-49.7-44.1-51.1-47.5c0-0.1,0-0.1-0.1-0.2l0,0.1l10.6-4.5c0,0,0.1,0.1,0.2,0.4
		c1.3,3.2,12.5,28.9,44.4,40.9L206.6,298.8z"/>
	<rect x="190.6" y="413.8" class="st1" width="11.5" height="1.6"/>
	<path class="st1" d="M208.6,299.1l0-5.8l-2-5.4c31.1-11.7,42.7-36.9,44.3-40.6c0-0.1,0.1-0.2,0.1-0.4c0.1-0.2,0.1-0.3,0.1-0.3l0,0
		c0,0,0-0.1,0.1-0.1l1.8,0.9l4.4,1.9h4.6c0,0.6-0.1,1.3-0.3,1.8c0,0,0-0.1,0.1-0.1c0,0.1,0,0.1-0.1,0.2c0,0.1-0.1,0.2-0.1,0.3
		c-2.3,5.5-15.4,33.9-50.9,47.3C210,299,209.3,299.1,208.6,299.1z M261.6,251.4c-0.1,0.1-0.1,0.2-0.2,0.3
		C261.5,251.6,261.6,251.5,261.6,251.4z M261.3,251.1l0.3,0.2c0,0,0,0,0,0c0,0,0,0,0,0L261.3,251.1z"/>
</g>
<g>
	<circle class="st4" cx="130" cy="159.9" r="26.8"/>
	<circle class="st4" cx="285" cy="159.9" r="26.8"/>
	<path class="st1" d="M130,192.5c-18,0-32.6-14.6-32.6-32.6s14.6-32.6,32.6-32.6s32.6,14.6,32.6,32.6S148,192.5,130,192.5z
		 M130,138.9c-11.6,0-21,9.4-21,21c0,11.6,9.4,21,21,21s21-9.4,21-21C151.1,148.3,141.6,138.9,130,138.9z"/>
	<path class="st1" d="M285,192.5c-18,0-32.6-14.6-32.6-32.6s14.6-32.6,32.6-32.6s32.6,14.6,32.6,32.6S303,192.5,285,192.5z
		 M285,138.9c-11.6,0-21,9.4-21,21c0,11.6,9.4,21,21,21s21-9.4,21-21C306,148.3,296.6,138.9,285,138.9z"/>
	<path class="st4" d="M255,252.2c-13.6,9.1-29.9,14.5-47.5,14.5s-33.9-5.3-47.5-14.5c-0.2-0.1-0.4-0.3-0.6-0.4
		c-22.4-15.3-37.1-41.1-37.1-70.3v-21.6v-49.5c0-47,38.1-85.1,85.1-85.1l0,0c47,0,85.1,38.1,85.1,85.1v49.5v21.6
		c0,29.2-14.7,54.9-37.1,70.3C255.4,252,255.2,252.1,255,252.2z"/>
	<path class="st1" d="M177.1,179.6c-1.5,0-3-0.6-4.1-1.7c-1.1-1.1-1.7-2.6-1.7-4.1c0-1.5,0.6-3,1.7-4.1c1.3-1.3,3.3-2,5.2-1.6
		c0.4,0.1,0.7,0.2,1.1,0.3c0.3,0.1,0.7,0.3,1,0.5c0.3,0.2,0.6,0.5,0.9,0.7c0.3,0.3,0.5,0.6,0.7,0.9c0.2,0.3,0.4,0.7,0.5,1
		c0.1,0.3,0.3,0.7,0.3,1.1c0.1,0.4,0.1,0.8,0.1,1.1s0,0.8-0.1,1.1c-0.1,0.4-0.2,0.7-0.3,1.1c-0.1,0.3-0.3,0.7-0.5,1
		c-0.2,0.3-0.5,0.6-0.7,0.9C180.1,179,178.6,179.6,177.1,179.6z"/>
	<path class="st1" d="M242.5,179.6c-0.4,0-0.8,0-1.1-0.1c-0.4-0.1-0.7-0.2-1.1-0.3c-0.4-0.1-0.7-0.3-1-0.5c-0.3-0.2-0.6-0.5-0.9-0.7
		c-0.3-0.3-0.5-0.6-0.7-0.9c-0.2-0.3-0.4-0.6-0.5-1c-0.1-0.3-0.3-0.7-0.3-1.1c-0.1-0.4-0.1-0.8-0.1-1.1s0-0.8,0.1-1.1
		c0.1-0.4,0.2-0.7,0.3-1.1c0.1-0.3,0.3-0.7,0.5-1c0.2-0.3,0.5-0.6,0.7-0.9c0.3-0.3,0.6-0.5,0.9-0.7c0.3-0.2,0.6-0.4,1-0.5
		c0.3-0.1,0.7-0.3,1.1-0.3c1.9-0.4,3.9,0.2,5.2,1.6c0.3,0.3,0.5,0.6,0.7,0.9c0.2,0.3,0.4,0.7,0.5,1c0.1,0.3,0.3,0.7,0.3,1.1
		c0.1,0.4,0.1,0.8,0.1,1.1s0,0.8-0.1,1.1c-0.1,0.4-0.2,0.7-0.3,1.1c-0.1,0.3-0.3,0.7-0.5,1c-0.2,0.3-0.5,0.6-0.7,0.9
		C245.5,179,244,179.6,242.5,179.6z"/>
	<path class="st1" d="M200.8,192.6c-3.2,0-5.8-2.6-5.8-5.8v-16.2c0-3.1-2.5-5.6-5.6-5.6H162c-3.2,0-5.8-2.6-5.8-5.8
		c0-3.2,2.6-5.8,5.8-5.8h27.5c9.4,0,17.1,7.7,17.1,17.1v16.2C206.6,190,204,192.6,200.8,192.6z"/>
	<path class="st1" d="M253,165H230c-3.2,0-5.8-2.6-5.8-5.8c0-3.2,2.6-5.8,5.8-5.8H253c3.2,0,5.8,2.6,5.8,5.8
		C258.8,162.5,256.2,165,253,165z"/>
	<path class="st1" d="M219.1,226.6H196c-3.2,0-5.8-2.6-5.8-5.8c0-3.2,2.6-5.8,5.8-5.8h23.1c3.2,0,5.8,2.6,5.8,5.8
		C224.8,224,222.2,226.6,219.1,226.6z"/>
	<path class="st3" d="M189.9,252.2c9.6,6.5,20.7,11,32.6,13.2c-4.8,0.9-9.8,1.3-14.9,1.3c-17.6,0-33.9-5.3-47.5-14.5
		c-0.2-0.1-0.4-0.3-0.6-0.4c-22.4-15.3-37.1-41.1-37.1-70.3v-21.6c0-133.7,52.8-132,52.8-129.3l-10,15.2
		c-14.8,22.5-14.7,51.1-0.9,73.3c2.3,3.7,9.8,16.6,9.6,19.6c-0.5,10.9-8.8,20.5-20.5,21.1c-0.4,0-0.8,0-1.2,0v21.6
		c0,29.2,14.7,54.9,37.1,70.3C189.5,252,189.7,252.1,189.9,252.2z"/>
	<path class="st1" d="M292.6,159.9v21.6c0,4.5-0.4,8.9-1,13.3h-18.2v-37.4C279.5,159,286,159.9,292.6,159.9z"/>
	<path class="st1" d="M292.6,110.4v49.5c-6.6,0-13.1-0.9-19.2-2.5c-36.5-9.3-62.9-41.5-62.9-41.5V148c-47.4,0-66.7-44.2-66.7-44.2
		v28.8v62.2h-19.2l-1.1,0.1c-0.7-4.4-1-8.8-1-13.4v-21.6v-49.5c0-47,38.1-85.1,85.1-85.1c23.5,0,44.8,9.5,60.2,24.9
		C283.1,65.6,292.6,86.9,292.6,110.4z"/>
	<path class="st1" d="M143.8,200.6h-19.2v-11.5H138v-85.3c0-2.7,1.9-5.1,4.6-5.6c2.7-0.6,5.4,0.8,6.5,3.3
		c0.7,1.6,16.8,37.2,55.6,40.5v-26c0-2.4,1.5-4.6,3.8-5.4c2.3-0.8,4.9-0.1,6.4,1.8c0.3,0.3,25.7,30.9,59.9,39.5
		c6,1.5,12,2.3,17.8,2.3v11.5c-6.8,0-13.7-0.9-20.7-2.7c-24.5-6.2-44.4-21.9-55.7-32.7V148c0,3.2-2.6,5.8-5.8,5.8
		c-21,0-40.1-8.3-55.3-23.9c-2.1-2.1-4-4.3-5.6-6.4v71.3C149.5,198,147,200.6,143.8,200.6z"/>
	<path class="st1" d="M292.6,200.6h-19.2c-3.2,0-5.8-2.6-5.8-5.8v-37.4h11.5v31.6h13.5V200.6z"/>
	<path class="st1" d="M207.5,44.5c4.5,0,8.8,0.4,13,1.3"/>
	<path class="st2" d="M220.5,51.6c-0.4,0-0.8,0-1.1-0.1c-3.9-0.8-7.9-1.2-11.9-1.2c-3.2,0-5.8-2.6-5.8-5.8s2.6-5.8,5.8-5.8
		c4.8,0,9.5,0.5,14.1,1.4c3.1,0.6,5.1,3.7,4.5,6.8C225.6,49.7,223.2,51.6,220.5,51.6z"/>
	<path class="st2" d="M271.8,128.1c-3.2,0-5.8-2.6-5.8-5.8v-13.8c0-20.4-10.5-39.4-27.4-49.6c-0.5-0.3-1-0.6-1.5-0.9
		c-2.8-1.6-3.7-5.1-2.2-7.9c1.6-2.8,5.1-3.7,7.9-2.2c0.6,0.4,1.2,0.7,1.8,1.1c20.4,12.3,33,35.1,33,59.5v13.8
		C277.5,125.6,274.9,128.1,271.8,128.1z"/>
	<path class="st1" d="M207.5,272.4c-18.2,0-35.7-5.3-50.7-15.4l-0.2-0.1c-0.2-0.1-0.3-0.2-0.5-0.3c-20.5-14.1-34.5-36.2-38.4-60.7
		c-0.7-4.7-1.1-9.5-1.1-14.3v-71.2c0-50.1,40.8-90.9,90.9-90.9c24.3,0,47.1,9.5,64.3,26.6s26.6,40,26.6,64.3v71.2
		c0,4.7-0.4,9.5-1.1,14.2c0,0,0,0,0,0c-3.8,24.5-17.8,46.7-38.4,60.8c-0.2,0.1-0.3,0.2-0.5,0.3l-0.1,0.1
		C243.2,267.1,225.7,272.4,207.5,272.4z M207.5,31.1c-43.7,0-79.3,35.6-79.3,79.3v71.2c0,4.2,0.3,8.4,1,12.5
		c3.4,21.4,15.6,40.7,33.6,53c0.1,0,0.1,0.1,0.2,0.1l0.4,0.3c13.1,8.8,28.4,13.4,44.2,13.4s31.2-4.7,44.2-13.5l0.2-0.1
		c0.1,0,0.1-0.1,0.2-0.1c0.1,0,0.1-0.1,0.2-0.1c18-12.3,30.2-31.7,33.6-53.1l0,0c0.6-4.1,1-8.3,1-12.4v-71.2
		c0-21.2-8.3-41.1-23.2-56.1C248.6,39.3,228.7,31.1,207.5,31.1z"/>
</g>
</svg>
