<?xml version="1.0" encoding="utf-8"?>
<!-- Generator: Adobe Illustrator 22.1.0, SVG Export Plug-In . SVG Version: 6.00 Build 0)  -->
<svg version="1.1" id="Capa_1" xmlns="http://www.w3.org/2000/svg" xmlns:xlink="http://www.w3.org/1999/xlink" x="0px" y="0px"
	 viewBox="0 0 215.2 235.1" style="enable-background:new 0 0 215.2 235.1;" xml:space="preserve">
<style type="text/css">
	.st0{fill:#00EA75;}
</style>
<path class="st0" d="M0,42.6c0-6,1.1-11.5,3.4-16.7s5.3-9.7,9.1-13.6s8.3-6.9,13.6-9.1C31.4,1.1,36.9,0,42.6,0
	c10.5,0,19.6,3.7,27.2,11c7.6,7.3,13.8,16.3,18.6,27s8.3,21.7,10.5,33s3.3,21.9,3.3,31.8c0,40.6-17.3,81.6-51.9,123.1
	c-6.2,6.2-13.2,9.3-21,9.3c-8,0-14.9-2.9-20.6-8.6C2.9,220.8,0,214,0,205.9c0-3.9,0.8-7.9,2.4-12c10.3-25.2,15.5-49.2,15.5-71.9
	c0-21.5-4.7-42.4-14.1-62.6C1.3,53.7,0,48.1,0,42.6z M113.1,42.6c0-6,1.1-11.5,3.4-16.7s5.3-9.7,9.1-13.6s8.3-6.9,13.6-9.1
	C144.5,1.1,150,0,155.7,0c10.5,0,19.6,3.7,27.2,11c7.6,7.3,13.8,16.3,18.6,27s8.3,21.7,10.5,33s3.3,21.9,3.3,31.8
	c0,40.6-17.3,81.6-51.9,123.1c-6.2,6.2-13.2,9.3-21,9.3c-8,0-14.9-2.9-20.6-8.6c-5.7-5.7-8.6-12.6-8.6-20.6c0-3.9,0.8-7.9,2.4-12
	c10.3-25.2,15.5-49.2,15.5-71.9c0-21.5-4.7-42.4-14.1-62.6C114.4,53.7,113.1,48.1,113.1,42.6L113.1,42.6z"/>
</svg>
