<svg id="Capa_1" data-name="Capa 1" xmlns="http://www.w3.org/2000/svg" viewBox="0 0 756.6 251.56"><defs><style>.cls-1{fill:#4880e9;}.cls-2{fill:#8fff8c;}</style></defs><title>sonrlogo</title><path class="cls-1" d="M601.36,659.47H587.9V630.31a1.36,1.36,0,0,0-1.32-1.32H584.7a1.33,1.33,0,0,0-1.33,1.32v31.88a1.34,1.34,0,0,0,1.33,1.33h16.66a1.34,1.34,0,0,0,1.33-1.33V660.8A1.34,1.34,0,0,0,601.36,659.47Z" transform="translate(-582.4 -412.44)"/><path class="cls-1" d="M647.93,629h-1.88a1.32,1.32,0,0,0-1.32,1.32V644H626V630.31a1.33,1.33,0,0,0-1.33-1.32h-1.88a1.36,1.36,0,0,0-1.32,1.32v31.88a1.36,1.36,0,0,0,1.32,1.33h1.88a1.34,1.34,0,0,0,1.33-1.33V648h18.73v14.18a1.33,1.33,0,0,0,1.32,1.33h1.88a1.36,1.36,0,0,0,1.33-1.33V630.31A1.36,1.36,0,0,0,647.93,629Z" transform="translate(-582.4 -412.44)"/><path class="cls-1" d="M698.58,656a1.3,1.3,0,0,0-1.63.15c-2.65,2-5,3.54-9,3.54a13.45,13.45,0,0,1,0-26.88,14.2,14.2,0,0,1,8.91,3.49,1.39,1.39,0,0,0,1,.51h.05a1.1,1.1,0,0,0,.8-.46L700,635a1.34,1.34,0,0,0-.07-1.95,17.35,17.35,0,0,0-11.92-4.57,17.75,17.75,0,1,0,0,35.49,16.85,16.85,0,0,0,12-4.79,1.52,1.52,0,0,0,.42-1.13,1.05,1.05,0,0,0-.39-.77Z" transform="translate(-582.4 -412.44)"/><path class="cls-1" d="M758.41,629H747.62a1.32,1.32,0,0,0-1.28,1.32v31.88a1.33,1.33,0,0,0,1.28,1.33h10.79a17.27,17.27,0,1,0,0-34.53Zm12.45,17.22a12.77,12.77,0,0,1-13.22,13.17h-6.82v-26.3h6.82C765.3,633.08,770.86,638.6,770.86,646.21Z" transform="translate(-582.4 -412.44)"/><rect class="cls-1" x="214.37" y="216.55" width="4.58" height="34.53" rx="1.32" ry="1.32"/><path class="cls-1" d="M851.55,647.29h-8.33a1.3,1.3,0,0,0-1.33,1.32v1.79a1.29,1.29,0,0,0,1.33,1.27h5.13v6.09a18.45,18.45,0,0,1-8.26,1.86,13.47,13.47,0,0,1,0-26.92,14.2,14.2,0,0,1,8.87,3.65,1.49,1.49,0,0,0,1,.49h0a1.26,1.26,0,0,0,.83-.48c.25-.28.56-.58.87-.88l.46-.45a1.35,1.35,0,0,0-.08-1.95,17.31,17.31,0,0,0-11.92-4.57,17.75,17.75,0,1,0,0,35.49,24,24,0,0,0,12.15-3.26,1.56,1.56,0,0,0,.54-1.1v-11A1.31,1.31,0,0,0,851.55,647.29Z" transform="translate(-582.4 -412.44)"/><rect class="cls-1" x="292.1" y="216.55" width="4.58" height="34.53" rx="1.32" ry="1.32"/><path class="cls-1" d="M919.75,629H899.33a1.33,1.33,0,0,0-1.33,1.32v1.4a1.33,1.33,0,0,0,1.33,1.32h8v29.16a1.36,1.36,0,0,0,1.32,1.33h1.83a1.36,1.36,0,0,0,1.33-1.33V633h8a1.32,1.32,0,0,0,1.32-1.32v-1.4A1.32,1.32,0,0,0,919.75,629Z" transform="translate(-582.4 -412.44)"/><path class="cls-1" d="M949.89,628.51h-.48a1.27,1.27,0,0,0-1.19.77l-14.64,32.41a1.26,1.26,0,0,0,.06,1.25,1.3,1.3,0,0,0,1.13.58h1.93a1.27,1.27,0,0,0,1.19-.78l3.41-7.7h16.56l3.45,7.69a1.29,1.29,0,0,0,1.2.79h1.93a1.3,1.3,0,0,0,1.13-.58,1.26,1.26,0,0,0,.06-1.25l-14.55-32.43A1.27,1.27,0,0,0,949.89,628.51Zm6.3,22.73H943l6.58-14.81c1.12,2.49,2.23,5,3.34,7.48S955.1,648.8,956.19,651.24Z" transform="translate(-582.4 -412.44)"/><path class="cls-1" d="M1002.53,659.47H989.07V630.31a1.36,1.36,0,0,0-1.32-1.32h-1.88a1.33,1.33,0,0,0-1.33,1.32v31.88a1.34,1.34,0,0,0,1.33,1.33h16.66a1.34,1.34,0,0,0,1.33-1.33V660.8A1.34,1.34,0,0,0,1002.53,659.47Z" transform="translate(-582.4 -412.44)"/><path class="cls-1" d="M1059.74,629H1049.1a1.32,1.32,0,0,0-1.32,1.32v31.88a1.33,1.33,0,0,0,1.32,1.33h1.83a1.36,1.36,0,0,0,1.33-1.33v-10.9h7.53a11.15,11.15,0,1,0,0-22.3Zm6.67,11a6.94,6.94,0,0,1-6.91,7h-7.24V633.47h7.24A6.71,6.71,0,0,1,1066.41,639.94Z" transform="translate(-582.4 -412.44)"/><path class="cls-1" d="M1101.21,628.51h-.48a1.26,1.26,0,0,0-1.19.77l-14.64,32.41a1.29,1.29,0,0,0,0,1.25,1.31,1.31,0,0,0,1.14.58H1088a1.28,1.28,0,0,0,1.2-.78l3.41-7.7h16.56l3.45,7.69a1.27,1.27,0,0,0,1.2.79h1.92a1.26,1.26,0,0,0,1.2-1.83l-14.55-32.43A1.28,1.28,0,0,0,1101.21,628.51Zm6.3,22.73h-13.18l6.59-14.81c1.12,2.49,2.23,5,3.33,7.48S1106.42,648.8,1107.51,651.24Z" transform="translate(-582.4 -412.44)"/><path class="cls-1" d="M1160.57,639.66A10.8,10.8,0,0,0,1149.66,629h-12.48a1.32,1.32,0,0,0-1.32,1.32v31.88a1.33,1.33,0,0,0,1.32,1.33h1.88a1.36,1.36,0,0,0,1.33-1.33V650.32h8.53l6.29,12.54a1.25,1.25,0,0,0,1.14.66h2.46a1.32,1.32,0,0,0,1.17-.63,1.37,1.37,0,0,0,0-1.37l-6.38-11.84A11,11,0,0,0,1160.57,639.66Zm-4.63,0a6.58,6.58,0,0,1-6.52,6.63h-8.94v-13h8.94A6.62,6.62,0,0,1,1155.94,639.7Z" transform="translate(-582.4 -412.44)"/><path class="cls-1" d="M1199.36,629h-20.42a1.33,1.33,0,0,0-1.33,1.32v1.4a1.33,1.33,0,0,0,1.33,1.32h8v29.16a1.36,1.36,0,0,0,1.32,1.33h1.83a1.36,1.36,0,0,0,1.33-1.33V633h8a1.32,1.32,0,0,0,1.32-1.32v-1.4A1.32,1.32,0,0,0,1199.36,629Z" transform="translate(-582.4 -412.44)"/><path class="cls-1" d="M1246.56,629h-1.69a1.32,1.32,0,0,0-1.32,1.32v24.62l-21.09-26.27-.12-.15h-1.4a1.32,1.32,0,0,0-1.33,1.27v32.41a1.36,1.36,0,0,0,1.33,1.33h1.68a1.34,1.34,0,0,0,1.33-1.33V637.11l21.42,26.74.12.15h1.07a1.31,1.31,0,0,0,1.32-1.28V630.31A1.36,1.36,0,0,0,1246.56,629Z" transform="translate(-582.4 -412.44)"/><path class="cls-1" d="M1291.64,629h-19a1.32,1.32,0,0,0-1.32,1.32v31.88a1.33,1.33,0,0,0,1.32,1.33h19a1.33,1.33,0,0,0,1.32-1.33V660.8a1.33,1.33,0,0,0-1.32-1.33h-15.78V648h13.42a1.32,1.32,0,0,0,1.32-1.32v-1.4a1.35,1.35,0,0,0-1.32-1.32h-13.42V633h15.78a1.32,1.32,0,0,0,1.32-1.32v-1.4A1.32,1.32,0,0,0,1291.64,629Z" transform="translate(-582.4 -412.44)"/><path class="cls-1" d="M1339,639.66A10.8,10.8,0,0,0,1328.09,629h-12.47a1.33,1.33,0,0,0-1.33,1.32v31.88a1.34,1.34,0,0,0,1.33,1.33h1.88a1.36,1.36,0,0,0,1.32-1.33V650.32h8.54l6.29,12.54a1.24,1.24,0,0,0,1.14.66h2.45a1.33,1.33,0,0,0,1.18-.63,1.39,1.39,0,0,0,0-1.37L1332,649.68A11,11,0,0,0,1339,639.66Zm-4.62,0a6.59,6.59,0,0,1-6.53,6.63h-8.93v-13h8.93A6.62,6.62,0,0,1,1334.38,639.7Z" transform="translate(-582.4 -412.44)"/><path class="cls-1" d="M919.91,497.73a10.63,10.63,0,0,0-10.62,10.62A72.83,72.83,0,1,1,888,456.84a10.54,10.54,0,0,0,7.51,3.11h0a10.61,10.61,0,0,0,7.5-18.12,94.07,94.07,0,1,0,27.56,66.52A10.63,10.63,0,0,0,919.91,497.73Z" transform="translate(-582.4 -412.44)"/><path class="cls-1" d="M836.46,478.79a29.36,29.36,0,0,1,20.89,8.66,10.62,10.62,0,1,0,15-15,50.78,50.78,0,1,0,14.87,35.91,10.62,10.62,0,1,0-21.23,0,29.55,29.55,0,1,1-29.55-29.56Z" transform="translate(-582.4 -412.44)"/><path class="cls-1" d="M1137.25,414.27a10.63,10.63,0,0,0-10.62,10.62V563.28L1001,418a10.62,10.62,0,0,0-18.65,6.94V591.8a10.62,10.62,0,0,0,21.24,0V453.41l125.63,145.33a10.62,10.62,0,0,0,18.65-6.94V424.89A10.63,10.63,0,0,0,1137.25,414.27Z" transform="translate(-582.4 -412.44)"/><path class="cls-1" d="M1298.33,525.87A57,57,0,0,0,1282,414.27h-63.08a10.63,10.63,0,0,0-10.62,10.62V591.8a10.62,10.62,0,1,0,21.23,0V529l46.11-.6,36,68.39a10.59,10.59,0,0,0,14.34,4.45,10.61,10.61,0,0,0,4.45-14.33ZM1282,507h-.13l-52.34.68v-72.2H1282a35.76,35.76,0,0,1,.08,71.52Z" transform="translate(-582.4 -412.44)"/><path class="cls-1" d="M660.6,506.6l-2.8-1.19c-8.72-3.72-25-10.65-35.57-17-1-.61-25-15.24-15-37.54a27.6,27.6,0,0,1,18.93-16c14-3.68,32.62,1,47.4,11.81a10.62,10.62,0,0,0,12.56-17.12c-20-14.71-45.08-20.54-65.35-15.23a48.55,48.55,0,0,0-32.89,27.78c-14.26,31.52,9.1,56,23.44,64.55,11.83,7,28.93,14.33,38.13,18.25l2.72,1.16c13.84,5.95,28.53,17.44,19.9,38.4-3.52,8.54-11.2,14.59-21.63,17-16.5,3.87-36.31-1.62-50.49-14a10.62,10.62,0,0,0-14,16c14.91,13,34.37,20.49,53.4,20.49a69.33,69.33,0,0,0,15.92-1.82c17.27-4.06,30.2-14.58,36.4-29.62C705.33,539.64,684.56,516.9,660.6,506.6Z" transform="translate(-582.4 -412.44)"/><circle class="cls-2" cx="254.06" cy="95.91" r="13.25"/><path class="cls-2" d="M927.42,417.38a10.64,10.64,0,0,0-15,0L829,500.84a10.61,10.61,0,1,0,15,15l83.46-83.45a10.62,10.62,0,0,0,0-15Z" transform="translate(-582.4 -412.44)"/></svg>