<?xml version="1.0" encoding="utf-8"?>
<!-- Generator: Adobe Illustrator 22.1.0, SVG Export Plug-In . SVG Version: 6.00 Build 0)  -->
<svg version="1.1" id="Capa_1" xmlns="http://www.w3.org/2000/svg" xmlns:xlink="http://www.w3.org/1999/xlink" x="0px" y="0px"
	 viewBox="0 0 476 478" style="enable-background:new 0 0 476 478;" xml:space="preserve">
<style type="text/css">
	.st0{fill:#333333;}
	.st1{fill:#71A950;}
	.st2{fill:#EBCAAD;}
	.st3{opacity:0.44;fill:#333333;enable-background:new    ;}
	.st4{fill:#FFFFFF;}
	.st5{fill:#52A280;}
</style>
<path class="st0" d="M243.7,124.5c4.1,0,8.1,0.4,12,1.2"/>
<path class="st1" d="M289.5,316.5c0.2,0,0.3,0.1,0.5,0.1c9.3,2.2,17.9,6.1,25.5,11.3c20.7,14.1,34.3,37.8,34.3,64.7v75.1h-41.6
	H183.5h-41.6v-75.1c0-26.9,13.6-50.6,34.3-64.7c7.6-5.2,16.2-9.1,25.5-11.3c0.2,0,0.3-0.1,0.5-0.1"/>
<path class="st1" d="M183.5,358.1v109.7h-41.6v-75.1c0-26.9,13.6-50.6,34.3-64.7C180.8,337,183.5,347.3,183.5,358.1z"/>
<path class="st1" d="M349.7,392.7v75.1h-41.6V358.1c0-10.9,2.6-21.1,7.3-30.1C336.2,342.1,349.7,365.8,349.7,392.7z"/>
<path class="st2" d="M290,316.7v1.6l-21.4,48.5c-6.7,4-14.4,6.3-22.8,6.3c-7.8,0-15.2-2-21.6-5.6l-3.7-8.4l-18.7-42.4
	c0.1,0,0.2-0.1,0.3-0.1c12.5,8.4,27.5,13.3,43.7,13.3c1.5,0,3,0,4.4-0.1c0.2,0,0.4,0,0.6,0c0.8-0.1,1.5-0.1,2.3-0.2
	c0.7-0.1,1.4-0.1,2.1-0.2c0.3,0,0.7-0.1,1-0.1c1-0.1,1.9-0.3,2.9-0.4c0.5-0.1,0.9-0.2,1.4-0.2c0,0,0.1,0,0.1,0
	c0.5-0.1,0.9-0.2,1.4-0.3c0.5-0.1,0.9-0.2,1.4-0.3c0.1,0,0.1,0,0.2-0.1c0.4-0.1,0.8-0.2,1.3-0.3c0.9-0.2,1.9-0.5,2.8-0.8
	c1.4-0.4,2.8-0.8,4.1-1.3c0.5-0.2,0.9-0.3,1.4-0.5c0.4-0.2,0.9-0.3,1.3-0.5c0.4-0.2,0.9-0.3,1.3-0.5c0.9-0.4,1.8-0.7,2.6-1.1
	c0.4-0.2,0.8-0.4,1.2-0.6c0.2-0.1,0.5-0.2,0.7-0.3c0.4-0.2,0.8-0.4,1.1-0.6c0.7-0.3,1.3-0.7,2-1.1c0.4-0.2,0.8-0.4,1.2-0.7
	c0.2-0.1,0.3-0.2,0.5-0.3c0.4-0.2,0.8-0.5,1.1-0.7c0.8-0.5,1.6-1,2.3-1.5c0.3-0.2,0.6-0.4,0.9-0.6
	C289.6,316.6,289.8,316.6,290,316.7z"/>
<path class="st3" d="M288.6,317.1c-6,11.3-14.6,21.1-25.2,28.3c-0.2,0.1-0.4,0.2-0.5,0.4c-12.2,8.2-26.7,13-42.4,13.3l-18.7-42.4
	c0.1,0,0.2-0.1,0.3-0.1c12.5,8.4,27.5,13.3,43.7,13.3c1.5,0,3,0,4.4-0.1c0.2,0,0.4,0,0.6,0c0.8-0.1,1.5-0.1,2.3-0.2
	c0.7-0.1,1.4-0.1,2.1-0.2c0.3,0,0.7-0.1,1-0.1c1-0.1,1.9-0.3,2.9-0.4c0.5-0.1,0.9-0.2,1.4-0.2c0,0,0.1,0,0.1,0
	c0.5-0.1,0.9-0.2,1.4-0.3c0.5-0.1,0.9-0.2,1.4-0.3c0.1,0,0.1,0,0.2-0.1c0.4-0.1,0.8-0.2,1.3-0.3c0.9-0.2,1.9-0.5,2.8-0.8
	c1.4-0.4,2.8-0.8,4.1-1.3c0.5-0.2,0.9-0.3,1.4-0.5c0.5-0.2,0.9-0.3,1.3-0.5c0.4-0.2,0.9-0.3,1.3-0.5c0.9-0.4,1.8-0.7,2.6-1.1
	c0.4-0.2,0.8-0.4,1.2-0.6c0.2-0.1,0.5-0.2,0.7-0.3c0.4-0.2,0.8-0.4,1.1-0.6c0.7-0.3,1.3-0.7,2-1.1c0.4-0.2,0.8-0.4,1.2-0.7
	c0.2-0.1,0.3-0.2,0.5-0.3c0.4-0.2,0.8-0.5,1.1-0.7C287.1,318.1,287.8,317.6,288.6,317.1z"/>
<path class="st0" d="M313.4,467.8h-10.6V358.1c0-11.3,2.7-22.6,7.9-32.6l9.4,4.9c-4.5,8.6-6.7,17.9-6.7,27.7V467.8z"/>
<path class="st4" d="M332,452c-2.9,0-5.3-2.4-5.3-5.3v-61.2c0-2.9,2.4-5.3,5.3-5.3c2.9,0,5.3,2.4,5.3,5.3v61.2
	C337.4,449.6,335,452,332,452z"/>
<path class="st3" d="M180.5,338.6c-13.5,14.1-21.7,33.1-21.7,54.1v76h-16.9v-76c0-26.9,13.6-50.6,34.3-64.7
	C177.9,331.4,179.4,334.9,180.5,338.6z"/>
<path class="st0" d="M349.7,473.1H141.9c-2.9,0-5.3-2.4-5.3-5.3v-75.1c0-27.7,13.7-53.5,36.6-69.1c8.3-5.7,17.5-9.7,27.2-12.1
	c0.1,0,0.2-0.1,0.4-0.1l0.1,0l2.7,10.3c-0.1,0-0.3,0.1-0.4,0.1l-0.1,0c0,0-0.1,0-0.1,0c-8.5,2.1-16.5,5.6-23.8,10.6
	c-20,13.6-31.9,36.2-31.9,60.3v69.8h197.2v-69.8c0-24.2-11.9-46.7-31.9-60.3c-7.3-5-15.3-8.5-23.8-10.6c0,0-0.1,0-0.1,0l-0.1,0
	c-0.1,0-0.3-0.1-0.4-0.1l2.7-10.3l-1.3,5.1l1.3-5.1l0.1,0c0.1,0,0.2,0.1,0.4,0.1c9.7,2.4,18.9,6.4,27.2,12.1
	c22.9,15.6,36.6,41.4,36.6,69.1v75.1C355,470.7,352.7,473.1,349.7,473.1z"/>
<path class="st0" d="M188.8,467.8h-10.6V358.1c0-9.8-2.3-19.1-6.7-27.7l9.4-4.9c5.2,10,7.9,21.3,7.9,32.6V467.8z"/>
<path class="st0" d="M362.1,473.1H129.7c-2.9,0-5.3-2.4-5.3-5.3c0-2.9,2.4-5.3,5.3-5.3h232.4c2.9,0,5.3,2.4,5.3,5.3
	C367.4,470.7,365,473.1,362.1,473.1z"/>
<path class="st0" d="M390.4,473.1h-9.7c-2.9,0-5.3-2.4-5.3-5.3c0-2.9,2.4-5.3,5.3-5.3h9.7c2.9,0,5.3,2.4,5.3,5.3
	C395.7,470.7,393.3,473.1,390.4,473.1z"/>
<path class="st0" d="M111,473.1h-9.7c-2.9,0-5.3-2.4-5.3-5.3c0-2.9,2.4-5.3,5.3-5.3h9.7c2.9,0,5.3,2.4,5.3,5.3
	C116.3,470.7,113.9,473.1,111,473.1z"/>
<path class="st5" d="M268.6,366.7l-22.3,50.7l-22-50c6.4,3.6,13.7,5.6,21.6,5.6C254.1,373,261.9,370.7,268.6,366.7z"/>
<path class="st0" d="M245.8,378.3c-8.5,0-16.8-2.2-24.2-6.3l5.2-9.2c5.8,3.2,12.3,5,19,5c7.1,0,14-1.9,20-5.6l5.5,9.1
	C263.7,375.9,254.8,378.3,245.8,378.3z"/>
<path class="st0" d="M246.3,422.7c-2.1,0-4-1.2-4.9-3.2l-44.6-101.2l9.7-4.3l0.2,0.4l39.6,89.8L286,314l9.7,4.3l-22.3,50.5
	l-22.3,50.7C250.3,421.4,248.4,422.7,246.3,422.7z"/>
<rect x="241" y="417.4" class="st0" width="10.6" height="51.3"/>
<g>
	<circle class="st2" cx="172.5" cy="230.6" r="24.7"/>
	<circle class="st2" cx="315" cy="230.6" r="24.7"/>
	<path class="st0" d="M172.5,260.6c-16.5,0-30-13.4-30-30s13.4-30,30-30s30,13.4,30,30S189,260.6,172.5,260.6z M172.5,211.2
		c-10.7,0-19.4,8.7-19.4,19.4s8.7,19.4,19.4,19.4c10.7,0,19.4-8.7,19.4-19.4C191.8,219.9,183.2,211.2,172.5,211.2z"/>
	<path class="st0" d="M315,260.6c-16.5,0-30-13.4-30-30s13.4-30,30-30s30,13.4,30,30S331.5,260.6,315,260.6z M315,211.2
		c-10.7,0-19.4,8.7-19.4,19.4s8.7,19.4,19.4,19.4c10.7,0,19.4-8.7,19.4-19.4C334.3,219.9,325.7,211.2,315,211.2z"/>
	<path class="st2" d="M287.4,315.4c-12.5,8.4-27.5,13.3-43.7,13.3s-31.2-4.9-43.7-13.3c-0.2-0.1-0.3-0.2-0.5-0.4
		c-20.6-14.1-34.1-37.8-34.1-64.6v-19.9V185c0-43.2,35-78.3,78.3-78.3l0,0c43.2,0,78.3,35,78.3,78.3v45.5v19.9
		c0,26.8-13.5,50.5-34.1,64.6C287.7,315.2,287.6,315.3,287.4,315.4z"/>
	<path class="st0" d="M322,230.6v19.9c0,26.8-13.5,50.5-34.1,64.6c-0.2,0.1-0.3,0.2-0.5,0.4c-12.5,8.4-27.5,13.3-43.7,13.3
		s-31.2-4.9-43.7-13.3c-0.2-0.1-0.3-0.2-0.5-0.4c-20.6-14.1-34.1-37.8-34.1-64.6v-19.9c0,0,1,9.2,4.3,20.2c3.3,11,9,23.7,18.5,30.8
		c17.7-7.6,36.6-11.4,55.5-11.4s37.8,3.8,55.5,11.4C318.1,267.4,322,230.6,322,230.6z"/>
	<path class="st0" d="M215.8,248.7c-1.4,0-2.8-0.6-3.7-1.5c-1-1-1.6-2.4-1.6-3.8c0-1.4,0.6-2.8,1.6-3.7c1.2-1.2,3.1-1.8,4.8-1.5
		c0.3,0.1,0.7,0.2,1,0.3c0.3,0.1,0.6,0.3,0.9,0.5c0.3,0.2,0.6,0.4,0.8,0.7c0.2,0.2,0.5,0.5,0.7,0.8c0.2,0.3,0.4,0.6,0.5,0.9
		c0.1,0.3,0.2,0.7,0.3,1c0.1,0.3,0.1,0.7,0.1,1c0,0.3,0,0.7-0.1,1c-0.1,0.3-0.2,0.7-0.3,1s-0.3,0.6-0.5,0.9
		c-0.2,0.3-0.4,0.6-0.7,0.8C218.5,248.1,217.2,248.7,215.8,248.7z"/>
	<path class="st0" d="M275.9,248.7c-0.3,0-0.7,0-1-0.1c-0.3-0.1-0.7-0.2-1-0.3c-0.3-0.1-0.6-0.3-0.9-0.5c-0.3-0.2-0.6-0.4-0.8-0.7
		c-0.2-0.2-0.5-0.5-0.7-0.8c-0.2-0.3-0.4-0.6-0.5-0.9s-0.2-0.7-0.3-1c-0.1-0.3-0.1-0.7-0.1-1c0-0.3,0-0.7,0.1-1
		c0.1-0.3,0.2-0.7,0.3-1c0.1-0.3,0.3-0.6,0.5-0.9s0.4-0.6,0.7-0.8c0.2-0.2,0.5-0.5,0.8-0.7c0.3-0.2,0.6-0.4,0.9-0.5
		c0.3-0.1,0.7-0.2,1-0.3c1.7-0.3,3.6,0.2,4.8,1.5c0.2,0.2,0.5,0.5,0.7,0.8c0.2,0.3,0.4,0.6,0.5,0.9s0.2,0.7,0.3,1
		c0.1,0.3,0.1,0.7,0.1,1c0,0.3,0,0.7-0.1,1c-0.1,0.3-0.2,0.7-0.3,1c-0.1,0.3-0.3,0.6-0.5,0.9c-0.2,0.3-0.4,0.6-0.7,0.8
		C278.7,248.1,277.3,248.7,275.9,248.7z"/>
	<path class="st0" d="M237.6,260.6c-2.9,0-5.3-2.4-5.3-5.3v-14.9c0-2.8-2.3-5.1-5.1-5.1h-25.3c-2.9,0-5.3-2.4-5.3-5.3
		s2.4-5.3,5.3-5.3h25.3c8.7,0,15.7,7.1,15.7,15.7v14.9C242.9,258.3,240.5,260.6,237.6,260.6z"/>
	<path class="st0" d="M285.6,235.3h-21.2c-2.9,0-5.3-2.4-5.3-5.3s2.4-5.3,5.3-5.3h21.2c2.9,0,5.3,2.4,5.3,5.3
		S288.5,235.3,285.6,235.3z"/>
	<path class="st2" d="M254.3,297.5h-17.1c-2.9,0-5.3-2.4-5.3-5.3s2.4-5.3,5.3-5.3h17.1c2.9,0,5.3,2.4,5.3,5.3
		S257.3,297.5,254.3,297.5z"/>
	<path class="st0" d="M322,185v25.7c0,0-20.5-29.6-54.2-25.2c-16,2.1-32.2,2.1-48.2,0c-33.7-4.4-54.2,25.2-54.2,25.2V185
		c0-43.2,35-78.3,78.3-78.3c21.6,0,41.2,8.8,55.3,22.9S322,163.4,322,185z"/>
	<path class="st4" d="M255.7,131c-0.3,0-0.7,0-1.1-0.1c-3.6-0.7-7.2-1.1-10.9-1.1c-2.9,0-5.3-2.4-5.3-5.3c0-2.9,2.4-5.3,5.3-5.3
		c4.4,0,8.8,0.4,13,1.3c2.9,0.6,4.7,3.4,4.2,6.2C260.4,129.2,258.2,131,255.7,131z"/>
	<path class="st0" d="M197,185c0-37.8,26.8-69.4,62.5-76.7c-5.1-1-10.4-1.6-15.8-1.6c-43.2,0-78.3,35-78.3,78.3v25.7
		c0,0,11.5-16.7,31.5-23.1V185z"/>
	<path class="st4" d="M300.9,173.7c-2.4,0-4.5-1.6-5.1-4c-3.5-13.6-11.8-24.9-23.5-32c-0.5-0.3-0.9-0.6-1.4-0.8
		c-2.6-1.4-3.4-4.7-2-7.2c1.4-2.6,4.7-3.4,7.2-2c0.6,0.3,1.1,0.7,1.7,1c14.1,8.5,24.1,22.2,28.3,38.4c0.7,2.8-1,5.7-3.8,6.5
		C301.8,173.7,301.4,173.7,300.9,173.7z"/>
	<path class="st3" d="M200.4,186.6c1,2.2,2.2,4.4,3.5,6.5c2.1,3.4,9,15.3,8.9,18c-0.4,10-8.1,18.9-18.9,19.4c-0.4,0-0.7,0-1.1,0
		v19.9c0,26.8,13.5,50.5,34.1,64.6c0.2,0.1,0.3,0.2,0.5,0.4c8.9,6,19,10.2,29.9,12.1c-4.4,0.8-9,1.2-13.7,1.2
		c-16.2,0-31.2-4.9-43.7-13.3c-0.2-0.1-0.3-0.2-0.5-0.4c-20.6-14.1-34.1-37.8-34.1-64.6v-19.9c0-7.3,0.2-14.1,0.5-20.5L200.4,186.6z
		"/>
	<path class="st0" d="M188.3,286.9c-1.1,0-2.2-0.4-3.2-1c-8.8-6.5-15.7-17.8-20.4-33.5c-3.4-11.3-4.4-20.8-4.5-21.2l10.6-1.1
		c0,0.1,1,8.9,4.1,19.2c3.6,11.8,8.5,20.8,14.4,26.2c17.4-7,35.7-10.6,54.5-10.6s37.1,3.6,54.5,10.6c5.8-5.4,10.8-14.4,14.4-26.2
		c3.1-10.4,4.1-19.1,4.1-19.2l10.6,1.1c-0.2,1.6-4.3,39.4-24.9,54.7c-1.5,1.1-3.5,1.4-5.3,0.6c-17-7.3-34.9-11-53.4-11
		s-36.4,3.7-53.4,11C189.7,286.7,189,286.9,188.3,286.9z"/>
	<path class="st0" d="M322,216c-1.7,0-3.3-0.8-4.4-2.3c-0.8-1.2-19.2-26.9-49.1-23c-16.4,2.1-33.1,2.1-49.6,0
		c-30.1-3.9-48.9,22.7-49.1,23c-1.7,2.4-5,3-7.4,1.3c-2.4-1.7-3-5-1.3-7.4c0.9-1.3,22.7-32.2,59.2-27.5c15.5,2,31.3,2,46.8,0
		c36.5-4.7,58.3,26.1,59.2,27.5c1.7,2.4,1.1,5.7-1.3,7.4C324.1,215.7,323,216,322,216z"/>
	<path class="st4" d="M307.4,238.5c-2.9,0-5.3-2.4-5.3-5.3v-14.1c0-2.9,2.4-5.3,5.3-5.3c2.9,0,5.3,2.4,5.3,5.3v14.1
		C312.7,236.1,310.3,238.5,307.4,238.5z"/>
	<path class="st0" d="M243.7,334c-16.6,0-32.7-4.9-46.4-14.1c-0.1,0-0.2-0.1-0.2-0.1c-0.2-0.1-0.4-0.3-0.6-0.4
		c-22.8-15.6-36.3-41.4-36.3-69V185c0-46.1,37.5-83.6,83.6-83.6c22.3,0,43.3,8.7,59.1,24.5c15.8,15.8,24.5,36.8,24.5,59.1v65.4
		c0,27.6-13.6,53.3-36.3,69c-0.2,0.1-0.3,0.2-0.5,0.3l-0.1,0.1c-0.1,0.1-0.2,0.1-0.2,0.1C276.4,329.2,260.3,334,243.7,334z
		 M202.9,310.9c0.1,0,0.1,0.1,0.2,0.1c12,8.1,26.1,12.4,40.7,12.4c14.6,0,28.6-4.3,40.7-12.4c0.1,0,0.1-0.1,0.2-0.1
		c0.1,0,0.1-0.1,0.2-0.1c0,0,0.1-0.1,0.1-0.1c19.9-13.6,31.8-36.2,31.8-60.2V185c0-19.5-7.6-37.8-21.4-51.6
		c-13.8-13.8-32.1-21.4-51.6-21.4c-40.2,0-73,32.7-73,73v65.4c0,24.1,11.9,46.6,31.8,60.2c0,0,0.1,0.1,0.1,0.1
		C202.8,310.9,202.8,310.9,202.9,310.9z"/>
</g>
</svg>
